<?xml version="1.0" standalone="no"?>
<!DOCTYPE svg PUBLIC "-//W3C//DTD SVG 20010904//EN"
 "http://www.w3.org/TR/2001/REC-SVG-20010904/DTD/svg10.dtd">
<svg version="1.0" xmlns="http://www.w3.org/2000/svg"
 width="512.000000pt" height="512.000000pt" viewBox="0 0 512.000000 512.000000"
 preserveAspectRatio="xMidYMid meet">

<g transform="translate(0.000000,512.000000) scale(0.100000,-0.100000)"
fill="#000000" stroke="none">
<path d="M2315 4789 c-155 -22 -355 -101 -487 -190 -101 -69 -233 -204 -304
-310 -123 -185 -182 -365 -191 -585 -11 -259 50 -483 189 -694 58 -88 204
-238 291 -298 469 -324 1082 -271 1477 127 427 430 451 1101 56 1563 -93 109
-225 212 -354 277 -195 98 -460 141 -677 110z"/>
<path d="M1295 2584 c-55 -37 -128 -91 -162 -121 -126 -110 -245 -302 -295
-478 -22 -78 -22 -92 -26 -669 -3 -569 -2 -592 17 -656 51 -168 195 -297 366
-330 40 -7 188 -10 452 -8 l391 3 -23 55 c-43 100 -46 153 -43 730 l3 545 27
75 c71 194 230 341 423 390 75 19 111 20 857 20 l778 0 -21 43 c-74 146 -210
291 -378 401 l-103 67 -66 -63 c-522 -499 -1328 -544 -1904 -107 -34 26 -92
75 -128 109 -35 33 -64 60 -65 60 0 0 -45 -30 -100 -66z"/>
<path d="M2486 1805 c-21 -7 -42 -17 -47 -22 -8 -8 829 -506 860 -511 20 -3
900 469 901 483 0 6 -21 21 -48 35 l-47 25 -790 2 c-653 2 -797 0 -829 -12z"/>
<path d="M2290 1020 c0 -435 1 -462 20 -513 24 -63 84 -127 149 -159 l46 -23
796 0 795 0 59 30 c68 35 127 104 144 169 8 28 11 177 9 477 l-3 435 -456
-244 c-496 -264 -509 -269 -614 -243 -28 7 -227 117 -490 271 -244 143 -447
260 -450 260 -3 0 -5 -207 -5 -460z"/>
</g>
</svg>
