<?xml version="1.0" encoding="UTF-8" standalone="no"?>
<svg
   xmlns:dc="http://purl.org/dc/elements/1.1/"
   xmlns:cc="http://creativecommons.org/ns#"
   xmlns:rdf="http://www.w3.org/1999/02/22-rdf-syntax-ns#"
   xmlns:svg="http://www.w3.org/2000/svg"
   xmlns="http://www.w3.org/2000/svg"
   viewBox="0 0 1122.52 793.70135"
   height="793.70135"
   width="1122.52"
   xml:space="preserve"
   id="svg2"
   version="1.1"><metadata
     id="metadata8"><rdf:RDF><cc:Work
         rdf:about=""><dc:format>image/svg+xml</dc:format><dc:type
           rdf:resource="http://purl.org/dc/dcmitype/StillImage" /></cc:Work></rdf:RDF></metadata><defs
     id="defs6"><clipPath
       id="clipPath18"
       clipPathUnits="userSpaceOnUse"><path
         id="path16"
         d="M 0,595.276 H 841.89 V 0 H 0 Z" /></clipPath></defs><g
     transform="matrix(1.3333333,0,0,-1.3333333,0,793.70133)"
     id="g10"><g
       id="g12"><g
         clip-path="url(#clipPath18)"
         id="g14"><g
           transform="translate(352.0581,344.3766)"
           id="g20"><path
             id="path22"
             style="fill:#834293;fill-opacity:1;fill-rule:nonzero;stroke:none"
             d="m 0,0 v -26.43 h 5.618 c 1.914,0 3.518,0.073 4.8,0.22 1.287,0.142 2.325,0.562 3.111,1.258 0.785,0.692 1.38,1.771 1.779,3.232 0.399,1.462 0.688,3.522 0.859,6.184 h 3.045 V -41.66 h -3.045 c -0.147,2.687 -0.387,4.808 -0.729,6.355 -0.342,1.547 -0.904,2.723 -1.673,3.517 -0.77,0.794 -1.808,1.295 -3.107,1.495 -1.303,0.203 -2.984,0.309 -5.04,0.309 H 0 v -26.129 h 9.005 v -3.473 H -16.94 v 3.473 h 8.578 V 0 h -8.578 v 3.473 h 47.771 l 0.944,-18.272 h -3.004 c -0.366,3.127 -0.871,5.647 -1.498,7.572 -0.631,1.926 -1.523,3.424 -2.679,4.495 -1.16,1.071 -2.662,1.792 -4.503,2.166 C 18.247,-0.187 15.935,0 13.167,0 Z" /></g><g
           transform="translate(401.8452,329.0568)"
           id="g24"><path
             id="path26"
             style="fill:#834293;fill-opacity:1;fill-rule:nonzero;stroke:none"
             d="M 0,0 C -0.427,0.175 -0.81,0.391 -1.136,0.651 -1.465,0.912 -1.787,1.213 -2.101,1.563 L 8.407,19.529 c 2.141,-0.899 4.242,-2.328 6.302,-4.295 z m 9.262,-20.917 c -0.085,2.401 -0.338,4.347 -0.749,5.837 -0.415,1.491 -0.965,2.655 -1.653,3.494 -0.684,0.838 -1.49,1.412 -2.423,1.713 -0.928,0.306 -1.949,0.456 -3.065,0.456 -1.172,0 -2.268,-0.175 -3.281,-0.521 -1.014,-0.346 -1.922,-0.953 -2.724,-1.819 -0.802,-0.872 -1.466,-2.04 -1.995,-3.518 -0.529,-1.478 -0.892,-3.355 -1.091,-5.642 z m 8.106,-11.587 c -0.916,-4.194 -2.687,-7.406 -5.317,-9.632 -2.634,-2.228 -6.046,-3.343 -10.247,-3.343 -2.891,0 -5.464,0.513 -7.723,1.543 -2.26,1.026 -4.173,2.418 -5.745,4.186 -1.571,1.766 -2.772,3.822 -3.603,6.183 -0.83,2.358 -1.241,4.869 -1.241,7.528 0,2.719 0.427,5.296 1.286,7.727 0.859,2.426 2.076,4.539 3.664,6.334 1.588,1.796 3.489,3.221 5.704,4.275 2.219,1.055 4.698,1.584 7.442,1.584 2.512,0 4.771,-0.448 6.774,-1.347 2.003,-0.896 3.701,-2.146 5.106,-3.754 1.4,-1.604 2.475,-3.522 3.236,-5.749 0.757,-2.227 1.165,-4.669 1.221,-7.332 H -7.931 c -0.032,-0.492 -0.044,-0.818 -0.044,-0.977 v -0.285 c 0,-3.412 0.248,-6.188 0.749,-8.329 0.5,-2.142 1.201,-3.811 2.101,-5.012 0.899,-1.201 1.974,-2.019 3.216,-2.455 1.245,-0.432 2.626,-0.651 4.14,-0.651 1.401,0 2.72,0.191 3.965,0.565 1.242,0.375 2.366,0.978 3.367,1.804 0.998,0.822 1.881,1.893 2.638,3.208 0.757,1.319 1.364,2.903 1.82,4.755 0.574,-0.061 1.144,-0.163 1.718,-0.305 0.57,-0.147 1.112,-0.318 1.629,-0.521" /></g><g
           transform="translate(440.5649,288.2633)"
           id="g28"><path
             id="path30"
             style="fill:#834293;fill-opacity:1;fill-rule:nonzero;stroke:none"
             d="m 0,0 h 5.789 v -3.469 h -19.94 V 0 h 6.436 v 30.033 h -6.436 v 3.468 H 0 v -6.29 h 0.171 c 1.173,2.403 2.744,4.247 4.719,5.533 1.974,1.287 4.518,1.934 7.632,1.934 3.917,0 6.832,-1.022 8.749,-3.061 1.915,-2.044 2.871,-4.955 2.871,-8.745 V 0 h 6.221 V -3.469 H 10.634 V 0 h 5.789 v 24.085 c 0,2.284 -0.529,3.974 -1.588,5.056 -1.054,1.088 -2.54,1.629 -4.458,1.629 -1.457,0 -2.813,-0.313 -4.07,-0.937 C 5.044,29.215 3.953,28.254 3.025,26.951 2.097,25.648 1.359,23.983 0.814,21.96 0.272,19.937 0,17.534 0,14.754 Z" /></g><g
           transform="translate(485.5073,334.0055)"
           id="g32"><path
             id="path34"
             style="fill:#834293;fill-opacity:1;fill-rule:nonzero;stroke:none"
             d="m 0,0 c -0.745,0 -1.425,0.122 -2.04,0.366 -0.614,0.248 -1.152,0.603 -1.628,1.067 -0.473,0.46 -0.835,1.005 -1.092,1.628 -0.256,0.619 -0.386,1.319 -0.386,2.101 0,0.753 0.134,1.449 0.407,2.085 0.272,0.639 0.635,1.188 1.095,1.648 0.456,0.464 1.001,0.827 1.628,1.087 0.627,0.261 1.299,0.387 2.016,0.387 0.716,0 1.384,-0.122 2.015,-0.367 C 2.642,9.754 3.191,9.4 3.668,8.94 4.14,8.476 4.502,7.935 4.759,7.312 5.016,6.688 5.146,5.988 5.146,5.207 5.146,4.425 5.012,3.717 4.738,3.082 4.466,2.442 4.1,1.901 3.644,1.453 3.188,1.001 2.642,0.651 2.015,0.391 1.384,0.13 0.716,0 0,0 m 3.859,-45.744 h 6.433 v -3.469 h -20.584 v 3.469 h 6.433 v 30.033 h -6.433 v 3.473 H 3.859 Z" /></g><g
           transform="translate(532.7231,288.2633)"
           id="g36"><path
             id="path38"
             style="fill:#834293;fill-opacity:1;fill-rule:nonzero;stroke:none"
             d="M 0,0 H 7.031 V -3.469 H -13.296 V 0 h 4.201 L -15.954,10.548 -24.016,0 h 5.061 V -3.469 H -35.423 V 0 h 6.904 l 10.463,13.756 -10.589,16.277 h -6.134 v 3.468 h 19.683 v -3.468 h -4.458 l 6.82,-10.459 7.971,10.459 h -5.015 v 3.468 H 6.433 V 30.033 H -0.256 L -10.634,16.362 Z" /></g><g
           transform="translate(394.834,219.9264)"
           id="g40"><path
             id="path42"
             style="fill:#834293;fill-opacity:1;fill-rule:nonzero;stroke:none"
             d="M 0,0 V 54.985 H -0.216 L -22.514,-4.12 h -3.387 l -20.93,59.02 h -0.211 V 0 h 7.714 V -3.468 H -59.479 V 0 h 8.577 v 56.113 h -8.577 v 3.473 h 19.854 l 17.881,-50.21 h 0.175 l 19.037,50.21 H 16.936 V 56.113 H 8.362 V 0 h 8.574 V -3.468 H -7.719 V 0 Z" /></g><g
           transform="translate(443.9741,239.8044)"
           id="g44"><path
             id="path46"
             style="fill:#834293;fill-opacity:1;fill-rule:nonzero;stroke:none"
             d="m 0,0 c -0.086,2.402 -0.338,4.348 -0.749,5.838 -0.416,1.486 -0.965,2.654 -1.653,3.493 -0.684,0.839 -1.491,1.408 -2.423,1.714 -0.928,0.306 -1.949,0.456 -3.066,0.456 -1.172,0 -2.267,-0.175 -3.281,-0.522 -1.014,-0.349 -1.921,-0.956 -2.724,-1.823 -0.801,-0.867 -1.465,-2.04 -1.995,-3.517 -0.528,-1.474 -0.89,-3.355 -1.09,-5.639 z m 8.105,-11.591 c -0.916,-4.193 -2.687,-7.405 -5.317,-9.632 -2.634,-2.227 -6.045,-3.339 -10.247,-3.339 -2.891,0 -5.463,0.513 -7.723,1.54 -2.259,1.026 -4.172,2.421 -5.744,4.189 -1.572,1.763 -2.773,3.822 -3.603,6.184 -0.831,2.357 -1.242,4.865 -1.242,7.527 0,2.72 0.428,5.297 1.287,7.724 0.859,2.43 2.076,4.543 3.664,6.338 1.588,1.791 3.489,3.22 5.704,4.275 2.219,1.055 4.697,1.584 7.441,1.584 2.513,0 4.772,-0.452 6.775,-1.348 C 1.103,12.556 2.801,11.306 4.205,9.697 5.605,8.094 6.681,6.176 7.441,3.949 8.199,1.722 8.606,-0.725 8.663,-3.387 h -25.856 c -0.033,-0.493 -0.044,-0.814 -0.044,-0.973 v -0.286 c 0,-3.411 0.248,-6.192 0.749,-8.333 0.5,-2.137 1.201,-3.81 2.1,-5.011 0.9,-1.197 1.975,-2.02 3.216,-2.451 1.246,-0.436 2.626,-0.652 4.141,-0.652 1.4,0 2.719,0.188 3.965,0.566 1.242,0.375 2.366,0.977 3.367,1.799 0.997,0.827 1.881,1.898 2.638,3.212 0.757,1.32 1.364,2.9 1.82,4.756 0.574,-0.061 1.144,-0.163 1.718,-0.309 0.57,-0.143 1.111,-0.318 1.628,-0.522" /></g><g
           transform="translate(469.062,234.8561)"
           id="g48"><path
             id="path50"
             style="fill:#834293;fill-opacity:1;fill-rule:nonzero;stroke:none"
             d="m 0,0 c 0,-3.298 0.229,-5.997 0.685,-8.094 0.46,-2.096 1.098,-3.745 1.929,-4.946 0.83,-1.201 1.823,-2.023 2.98,-2.476 1.161,-0.447 2.423,-0.671 3.795,-0.671 2.174,0 3.953,0.476 5.34,1.433 1.389,0.956 2.489,2.215 3.302,3.774 0.815,1.563 1.381,3.334 1.695,5.317 0.313,1.982 0.471,4.002 0.471,6.054 0,2.951 -0.264,5.447 -0.794,7.487 -0.529,2.039 -1.261,3.68 -2.21,4.926 -0.941,1.241 -2.064,2.141 -3.363,2.691 -1.303,0.549 -2.724,0.822 -4.267,0.822 -1.372,0 -2.646,-0.215 -3.818,-0.651 C 4.572,15.234 3.559,14.416 2.699,13.215 1.845,12.014 1.181,10.356 0.705,8.244 0.236,6.135 0,3.387 0,0 m 27.916,-14.93 h 6.433 v -3.472 H 20.197 v 5.256 h -0.171 c -0.745,-1.25 -1.55,-2.28 -2.422,-3.106 -0.872,-0.822 -1.795,-1.49 -2.768,-1.995 -0.969,-0.505 -1.987,-0.863 -3.046,-1.063 -1.059,-0.204 -2.129,-0.305 -3.212,-0.305 -2.72,0 -5.134,0.517 -7.246,1.543 -2.121,1.026 -3.904,2.414 -5.366,4.165 -1.453,1.746 -2.561,3.794 -3.322,6.139 -0.757,2.345 -1.136,4.849 -1.136,7.507 0,2.777 0.415,5.391 1.246,7.837 0.826,2.443 2.007,4.56 3.537,6.356 1.527,1.791 3.359,3.212 5.488,4.25 2.129,1.042 4.495,1.567 7.096,1.567 2.517,0 4.719,-0.529 6.608,-1.588 1.885,-1.055 3.4,-2.536 4.543,-4.445 h 0.171 v 27.468 h -6.859 v 3.472 h 14.578 z" /></g><g
           transform="translate(518.2045,265.6686)"
           id="g52"><path
             id="path54"
             style="fill:#834293;fill-opacity:1;fill-rule:nonzero;stroke:none"
             d="m 0,0 c -0.745,0 -1.425,0.122 -2.039,0.366 -0.615,0.249 -1.152,0.603 -1.629,1.068 -0.472,0.46 -0.834,1.004 -1.091,1.628 -0.257,0.619 -0.387,1.319 -0.387,2.1 0,0.754 0.135,1.449 0.408,2.085 0.272,0.639 0.634,1.189 1.094,1.649 0.456,0.463 1.002,0.826 1.629,1.086 0.627,0.261 1.299,0.387 2.015,0.387 0.717,0 1.385,-0.122 2.016,-0.366 C 2.643,9.755 3.192,9.4 3.669,8.94 4.141,8.477 4.503,7.935 4.76,7.312 5.016,6.689 5.146,5.989 5.146,5.207 5.146,4.426 5.012,3.717 4.739,3.082 4.467,2.442 4.1,1.901 3.645,1.454 3.188,1.002 2.643,0.651 2.016,0.391 1.385,0.131 0.717,0 0,0 m 3.86,-45.743 h 6.432 v -3.469 h -20.584 v 3.469 h 6.433 v 30.033 h -6.433 v 3.473 H 3.86 Z" /></g><g
           transform="translate(568.0776,228.4762)"
           id="g56"><path
             id="path58"
             style="fill:#834293;fill-opacity:1;fill-rule:nonzero;stroke:none"
             d="m 0,0 c -0.944,-4.369 -2.707,-7.666 -5.297,-9.894 -2.589,-2.226 -5.939,-3.341 -10.056,-3.341 -2.862,0 -5.426,0.516 -7.698,1.543 -2.276,1.025 -4.201,2.418 -5.789,4.188 -1.588,1.764 -2.806,3.816 -3.669,6.16 -0.854,2.345 -1.282,4.832 -1.282,7.463 0,2.747 0.448,5.341 1.348,7.768 0.904,2.43 2.182,4.551 3.839,6.359 1.657,1.808 3.652,3.24 5.98,4.295 2.329,1.059 4.927,1.588 7.784,1.588 2.027,0 3.897,-0.27 5.599,-0.807 1.697,-0.533 3.163,-1.25 4.392,-2.149 1.23,-0.896 2.191,-1.939 2.874,-3.123 0.689,-1.185 1.031,-2.43 1.031,-3.733 0,-0.924 -0.16,-1.698 -0.473,-2.321 -0.313,-0.623 -0.708,-1.119 -1.181,-1.498 -0.467,-0.374 -0.993,-0.651 -1.563,-0.822 -0.573,-0.175 -1.115,-0.261 -1.628,-0.261 -1.4,0 -2.508,0.448 -3.326,1.344 -0.815,0.895 -1.222,1.966 -1.222,3.212 0,0.753 0.188,1.563 0.558,2.43 0.371,0.868 0.94,1.678 1.718,2.431 -0.973,0.781 -2.096,1.307 -3.371,1.584 -1.27,0.276 -2.434,0.411 -3.493,0.411 -1.344,0 -2.634,-0.18 -3.88,-0.542 -1.242,-0.362 -2.344,-1.128 -3.301,-2.3 -0.957,-1.173 -1.723,-2.841 -2.292,-5.011 -0.575,-2.17 -0.864,-5.061 -0.864,-8.68 0,-3.355 0.269,-6.078 0.798,-8.159 0.529,-2.084 1.254,-3.713 2.187,-4.881 0.927,-1.173 2.019,-1.967 3.277,-2.386 1.258,-0.419 2.634,-0.631 4.12,-0.631 1.343,0 2.613,0.187 3.815,0.562 1.201,0.379 2.292,0.977 3.281,1.804 0.985,0.822 1.856,1.909 2.613,3.252 0.762,1.348 1.364,3 1.824,4.971 C -2.772,0.765 -2.202,0.663 -1.633,0.521 -1.062,0.374 -0.518,0.203 0,0" /></g><g
           transform="translate(597.2377,234.3356)"
           id="g60"><path
             id="path62"
             style="fill:#834293;fill-opacity:1;fill-rule:nonzero;stroke:none"
             d="m 0,0 c -3.119,-0.086 -5.631,-0.326 -7.549,-0.713 -1.913,-0.391 -3.399,-0.944 -4.457,-1.652 -1.058,-0.708 -1.775,-1.568 -2.146,-2.581 -0.37,-1.014 -0.558,-2.17 -0.558,-3.473 0,-2.256 0.465,-3.941 1.393,-5.057 0.932,-1.111 2.211,-1.669 3.838,-1.669 0.888,0 1.881,0.188 2.981,0.562 1.1,0.379 2.138,0.993 3.11,1.844 0.969,0.855 1.78,1.979 2.422,3.367 C -0.322,-7.983 0,-6.266 0,-4.21 Z m 13.765,-17.881 c -1.202,-0.227 -2.313,-0.374 -3.347,-0.431 -1.026,-0.057 -1.841,-0.089 -2.443,-0.089 -1.514,0 -2.764,0.126 -3.749,0.37 -0.99,0.244 -1.767,0.598 -2.337,1.062 -0.575,0.464 -0.99,1.027 -1.246,1.694 -0.256,0.664 -0.415,1.4 -0.472,2.214 h -0.212 c -0.802,-1.131 -1.661,-2.084 -2.573,-2.866 -0.916,-0.781 -1.873,-1.404 -2.874,-1.864 -1.002,-0.464 -2.024,-0.798 -3.07,-0.997 -1.043,-0.204 -2.092,-0.306 -3.147,-0.306 -1.746,0 -3.302,0.237 -4.678,0.712 -1.372,0.481 -2.528,1.153 -3.472,2.02 -0.945,0.867 -1.658,1.905 -2.142,3.106 -0.488,1.197 -0.732,2.525 -0.732,3.97 0,4.017 1.954,7.079 5.854,9.181 3.903,2.096 9.526,3.215 16.875,3.362 0.028,1.303 0.049,2.472 0.064,3.514 0.017,1.041 0.021,2.068 0.021,3.082 0,2.629 -0.533,4.473 -1.608,5.532 -1.071,1.058 -2.764,1.584 -5.081,1.584 -1.542,0 -2.923,-0.175 -4.14,-0.522 -1.213,-0.345 -2.207,-0.809 -2.981,-1.387 0.689,-0.664 1.194,-1.369 1.528,-2.106 0.325,-0.736 0.492,-1.47 0.492,-2.194 0,-1.213 -0.387,-2.227 -1.16,-3.037 -0.774,-0.806 -1.832,-1.213 -3.172,-1.213 -0.573,0 -1.132,0.086 -1.673,0.261 -0.542,0.174 -1.014,0.447 -1.417,0.826 -0.398,0.375 -0.721,0.846 -0.965,1.408 -0.24,0.566 -0.366,1.222 -0.366,1.974 0,1.19 0.321,2.337 0.969,3.449 0.643,1.116 1.599,2.105 2.874,2.972 1.27,0.871 2.858,1.564 4.76,2.084 1.896,0.526 4.12,0.783 6.668,0.783 2.06,0 3.879,-0.205 5.463,-0.608 C 1.868,19.253 3.208,18.581 4.311,17.641 5.41,16.704 6.24,15.45 6.799,13.887 7.353,12.327 7.633,10.386 7.633,8.073 7.633,7.495 7.625,6.546 7.612,5.228 7.597,3.912 7.576,2.459 7.548,0.867 7.519,-0.725 7.499,-2.337 7.482,-3.97 7.47,-5.606 7.462,-7.047 7.462,-8.289 c 0,-1.274 0.028,-2.337 0.086,-3.191 0.056,-0.852 0.199,-1.532 0.427,-2.037 0.228,-0.508 0.57,-0.871 1.03,-1.087 0.456,-0.215 1.103,-0.325 1.93,-0.325 0.712,0 1.661,0.085 2.83,0.26 z" /></g><g
           transform="translate(629.227,219.9264)"
           id="g64"><path
             id="path66"
             style="fill:#834293;fill-opacity:1;fill-rule:nonzero;stroke:none"
             d="M 0,0 H 6.433 V -3.468 H -14.151 V 0 h 6.432 v 56.113 h -6.432 v 3.473 H 0 Z" /></g><g
           transform="translate(280.5708,186.5915)"
           id="g68"><path
             id="path70"
             style="fill:#3f6760;fill-opacity:1;fill-rule:nonzero;stroke:none"
             d="m 0,0 c -0.798,0.024 -1.629,0.098 -2.492,0.231 -1.726,0.554 -3.627,1.547 -4.971,2.895 -1.376,1.385 -2.162,3.144 -1.538,5.191 0.423,2.206 2.466,3.843 4.824,4.747 0.586,4.014 0.46,8.179 -0.179,12.356 -2.504,0.135 -4.503,0.786 -5.394,3.266 -1.21,3.378 -0.005,6.464 2.259,8.866 1.107,1.177 2.467,2.19 3.932,2.988 1.149,0.627 2.594,0.978 4.121,1.083 C 4.795,41.912 9.697,40.3 10.951,37.308 13.284,31.738 8.508,28.425 4.315,26.666 4.926,22.253 5.044,17.726 4.429,13.138 7.242,12.315 10.336,10.585 10.312,7.043 10.284,2.69 6.164,-0.204 0,0 m -12.698,49.725 c -5.134,-1.551 -11.916,-1.698 -12.95,0.838 -1.531,3.762 2.121,8.241 5.817,11.225 -0.358,0.529 -0.708,1.066 -1.075,1.592 -1.058,1.603 -2.202,3.146 -3.35,4.689 -5.59,-1.282 -17.718,-2.19 -20.918,2.431 -4.177,6.038 5.284,10.369 11.835,12.405 2.597,0.81 4.735,1.258 5.382,1.307 0.647,0.053 1.409,0.118 2.227,0.179 4.543,0.33 11.094,0.44 12.429,-3.652 1.555,-4.751 -0.549,-7.442 -3.179,-9.188 0.834,-1.038 1.657,-2.093 2.442,-3.172 0.656,-0.875 1.291,-1.767 1.918,-2.666 5.044,1.123 11.008,0.447 12.401,-2.325 1.844,-3.672 -1.592,-7.133 -5.179,-9.617 -1.596,-1.107 -3.224,-2.023 -4.425,-2.67 -0.953,-0.529 -2.113,-0.997 -3.375,-1.376 M -48.284,108.5 c 0.659,-0.028 1.693,-1.05 1.787,-1.746 0.09,-0.64 -0.855,-1.425 -1.339,-2.146 h -0.892 c -0.468,0.721 -1.376,1.502 -1.287,2.146 0.094,0.696 1.14,1.775 1.731,1.746 m 28.18,-3.477 c -0.598,0.004 -1.596,1.132 -1.669,1.841 -0.065,0.643 0.879,1.392 1.38,2.096 0.297,-0.012 0.595,-0.024 0.892,-0.036 0.46,-0.745 1.376,-1.571 1.262,-2.207 -0.126,-0.7 -1.201,-1.694 -1.865,-1.694 M 6.469,20.278 c 9.51,6.465 10.776,15.198 9.177,20.34 -1.918,6.172 -12.32,8.044 -16.216,7.275 4.205,3.712 9.828,11.545 5.41,18.34 -4.059,6.238 -14.497,3.734 -17.152,4.051 3.152,2.374 8.591,7.223 6.673,12.397 -1.755,4.718 -14.9,5.749 -17.021,5.818 1.193,0.533 6.082,0.851 6.562,0.969 1.812,0.435 3.656,0.761 5.456,1.25 5.211,1.416 10.206,3.272 14.041,7.381 3.839,4.107 3.449,9.139 -1.099,12.339 -5.142,3.62 -10.968,4.104 -16.94,3.229 -3.908,-0.57 -7.568,-2.011 -10.064,-5.293 -0.753,-0.989 -1.331,-2.809 -0.924,-3.803 0.407,-0.989 2.084,-1.807 3.322,-2.022 3.851,-0.66 7.405,0.529 10.752,2.433 2.141,1.218 4.368,2.118 6.868,1.291 1.848,-0.606 2.467,-2.158 1.201,-3.583 -1.079,-1.212 -2.504,-2.393 -4.002,-2.894 -3.469,-1.16 -7.043,-2.056 -10.63,-2.773 -1.856,-0.37 -6.624,-0.781 -11.643,-1.18 -2.223,-0.179 -4.495,-0.354 -6.588,-0.525 -0.456,-0.037 -0.907,-0.073 -1.343,-0.11 -0.419,0.143 -0.839,0.276 -1.246,0.424 0,-0.18 -11.155,1.224 -16.553,2.454 -2.809,0.643 -5.557,1.881 -8.09,3.298 -0.944,0.529 -1.713,2.414 -1.546,3.53 0.101,0.695 2.125,1.611 3.232,1.538 1.795,-0.122 3.643,-0.757 5.284,-1.567 2.927,-1.446 5.879,-2.61 9.181,-2.508 1.946,0.058 3.997,0.102 4.95,2.297 0.672,1.543 -0.378,3.619 -2.52,5.312 -6.51,5.146 -18.849,5.407 -25.55,0.542 -4.32,-3.139 -5,-7.308 -1.776,-11.562 3.355,-4.421 8.196,-6.538 13.293,-7.797 5.699,-1.412 11.513,-2.373 17.294,-3.452 0.35,-0.065 3.383,-0.012 3.734,-0.077 -5.782,-2.264 -16.847,-8.456 -15.491,-17.409 1.437,-9.539 18.621,-6.302 25.77,-6.627 -8.964,-8.53 -8.016,-24.688 15.121,-20.478 -0.937,-1.649 -5.875,-5.888 -4.613,-12.071 0.977,-4.788 4.613,-8.192 11.521,-10.129 -3.521,-1.205 -7.971,-5.325 -9.066,-11.803 -0.684,-4.034 1.612,-7.544 4.852,-9.477 0.228,-0.135 0.456,-0.265 0.693,-0.383 -0.334,-0.033 -0.713,-0.066 -1.108,-0.098 -8.179,-0.635 -29.088,-0.655 -29.088,-0.655 2.976,-2.215 13.373,-4.902 21.341,-5.46 3.232,-0.224 6.07,-0.102 7.841,0.554 0.305,-1.042 0.932,-2.073 1.787,-3.066 4.572,-5.312 15.597,-9.518 17.69,-8.622 -4.927,3.228 -10.989,9.367 -13.391,12.461 12.666,-0.032 17.466,3.885 20.218,10.166 1.311,6.27 -0.668,13.5 -9.604,15.735" /></g><g
           transform="translate(289.291,349.0929)"
           id="g72"><path
             id="path74"
             style="fill:#60978d;fill-opacity:1;fill-rule:nonzero;stroke:none"
             d="m 0,0 c 0.749,3.103 1.771,5.973 3.045,8.696 1.234,2.728 2.74,5.268 4.372,7.674 1.707,2.361 3.469,4.65 5.517,6.697 0.949,1.083 2.101,1.991 3.114,3.017 l 3.335,2.805 -0.269,-0.183 c 2.976,1.885 4.772,4.963 5.598,7.829 0.851,2.915 1.022,5.781 0.806,8.517 -0.191,2.74 -0.721,5.386 -1.429,7.943 -0.757,2.544 -1.669,5.031 -2.947,7.352 0.045,-2.642 0.106,-5.215 0.069,-7.756 -0.021,-2.54 -0.188,-5.035 -0.46,-7.438 -0.265,-2.402 -0.782,-4.706 -1.592,-6.648 -0.802,-1.962 -1.93,-3.428 -3.343,-4.283 L 15.796,34.21 C 15.71,34.157 15.629,34.1 15.548,34.039 12.962,32.032 10.455,29.875 8.33,27.326 6.111,24.871 4.348,22.005 2.837,19.069 1.897,17.18 1.185,15.189 0.631,13.162 c 0.004,0.086 0.004,0.171 0.012,0.253 0.204,2.552 0.696,5.068 1.572,7.458 0.37,1.221 0.989,2.341 1.538,3.497 0.688,1.083 1.295,2.223 2.154,3.213 1.539,2.108 3.575,3.842 5.655,5.597 C 9.111,33.237 7.642,33.555 4.275,30.688 2.805,29.097 0.55,25.49 -0.244,22.831 -1.16,19.745 -1.795,14.111 -0.651,9.494 -1.124,6.323 -0.786,3.07 0,0" /></g><g
           transform="translate(251.9672,411.2155)"
           id="g76"><path
             id="path78"
             style="fill:#60978d;fill-opacity:1;fill-rule:nonzero;stroke:none"
             d="m 0,0 c -2.031,-3.961 -3.257,-8.269 -3.77,-12.6 -0.464,-4.328 -0.346,-8.741 1.01,-12.914 1.278,4.144 2.459,8.028 3.806,11.802 1.336,3.762 2.797,7.381 4.556,10.801 1.747,3.428 3.762,6.664 6.168,9.71 2.369,3.102 5.211,5.858 8.337,8.875 C 17.974,15.373 15.865,14.77 13.891,13.838 12.877,13.41 11.945,12.84 10.984,12.291 10.516,12.002 10.072,11.676 9.616,11.362 9.156,11.053 8.709,10.723 8.289,10.361 4.824,7.584 1.999,3.965 0,0" /></g><g
           transform="translate(241.2075,401.612)"
           id="g80"><path
             id="path82"
             style="fill:#60978d;fill-opacity:1;fill-rule:nonzero;stroke:none"
             d="m 0,0 -0.313,-1.295 c -0.184,-0.867 -0.457,-1.726 -0.562,-2.609 -0.664,-3.51 -0.692,-7.113 -0.387,-10.638 0.346,-3.53 1.099,-6.995 2.219,-10.305 1.136,-3.301 2.593,-6.46 4.319,-9.424 1.731,-2.964 3.701,-5.761 5.912,-8.326 2.227,-2.549 4.621,-4.954 7.356,-6.917 -3.444,5.761 -6.444,11.538 -8.846,17.462 -1.193,2.963 -2.227,5.951 -3.041,8.976 -0.794,3.025 -1.368,6.079 -1.645,9.14 -0.623,6.124 0.057,12.259 1.962,18.198 1.93,5.936 5.117,11.571 8.818,17.189 C 10.239,17.718 5.517,12.474 2.39,6.172 L 1.311,3.762 C 0.953,2.952 0.721,2.097 0.419,1.262 Z" /></g><g
           transform="translate(243.6709,360.797)"
           id="g84"><path
             id="path86"
             style="fill:#60978d;fill-opacity:1;fill-rule:nonzero;stroke:none"
             d="m 0,0 c -2.121,4.43 -3.651,8.79 -4.751,13.174 -1.087,4.385 -1.669,8.782 -1.726,13.207 -0.045,4.426 0.367,8.875 1.226,13.366 0.818,4.503 2.039,9.022 3.24,13.821 -3.485,-3.488 -6.123,-7.751 -7.996,-12.404 -1.868,-4.649 -2.841,-9.755 -2.768,-14.876 0.065,-5.122 1.233,-10.244 3.387,-14.828 C -7.21,6.917 -4.14,2.74 0,0" /></g><g
           transform="translate(226.2793,355.5241)"
           id="g88"><path
             id="path90"
             style="fill:#60978d;fill-opacity:1;fill-rule:nonzero;stroke:none"
             d="m 0,0 c 3.546,-3.44 7.593,-6.205 11.758,-8.631 4.169,-2.435 8.504,-4.491 12.889,-6.368 0.078,-0.032 0.159,-0.064 0.236,-0.097 -1.755,-0.016 -3.513,0.016 -5.26,0.179 -3.155,0.228 -6.31,0.676 -9.392,1.51 -0.761,0.237 -1.535,0.448 -2.296,0.701 -0.741,0.293 -1.535,0.509 -2.264,0.854 -1.49,0.632 -2.96,1.356 -4.311,2.346 0.957,-1.397 2.219,-2.585 3.575,-3.62 0.663,-0.549 1.384,-1.001 2.096,-1.49 0.733,-0.44 1.478,-0.867 2.235,-1.282 1.25,-0.656 2.541,-1.213 3.856,-1.702 -1.491,-0.297 -2.993,-0.716 -4.511,-1.335 -1.665,-0.729 -3.444,-1.678 -4.853,-3.481 -0.716,-0.855 -1.205,-2.027 -1.409,-3.164 -0.232,-1.164 -0.024,-2.271 0.228,-3.24 0.611,-1.934 1.694,-3.359 2.879,-4.564 1.201,-1.189 2.516,-2.19 3.969,-2.939 -0.819,1.412 -1.551,2.813 -2.121,4.218 -0.57,1.388 -0.981,2.805 -0.965,3.985 0.02,0.574 0.106,1.083 0.313,1.441 0.208,0.375 0.436,0.66 0.811,0.937 0.692,0.554 1.815,1.03 3.065,1.351 2.235,0.611 4.808,0.88 7.418,1.043 -0.908,-1.095 -1.698,-2.382 -1.909,-4.003 -0.054,-0.512 -0.021,-1.038 0.122,-1.538 0.154,-0.497 0.411,-0.941 0.716,-1.299 0.644,-0.696 1.45,-1.03 2.219,-1.197 -0.57,0.562 -1.006,1.218 -1.185,1.828 -0.077,0.313 -0.081,0.611 -0.036,0.879 0.065,0.269 0.175,0.517 0.305,0.758 0.59,0.961 1.677,1.758 2.846,2.398 1.181,0.647 2.463,1.164 3.782,1.584 1.315,0.427 2.674,0.752 4.043,1.009 l 12.351,2.337 c -12.351,-2.337 -15.128,-8.326 -15.661,-8.663 18.91,11.696 33.107,2.833 37.723,3.607 -5.419,2.861 -6.953,9.074 -18.039,11.781 -3.945,0.961 -20.69,7.614 -22.994,8.998 -4.837,2.902 -6.335,5.993 -9.083,9.359 l -1.954,2.614 c -0.322,0.439 -0.7,0.843 -0.981,1.311 -0.297,0.46 -0.583,0.928 -0.896,1.38 -0.594,0.92 -1.258,1.808 -1.828,2.756 -0.541,0.965 -1.112,1.918 -1.697,2.874 -0.273,0.489 -0.615,0.945 -0.872,1.446 -0.256,0.501 -0.509,1.001 -0.781,1.502 -0.53,0.998 -1.092,1.999 -1.666,3.001 -1.062,2.043 -2.043,4.152 -3.334,6.236 -0.04,-1.205 0.009,-2.402 0.07,-3.607 0.068,-1.201 0.126,-2.422 0.321,-3.611 C -0.244,19.216 0,18.031 0.277,16.85 0.403,16.256 0.554,15.67 0.701,15.079 0.851,14.489 1.075,13.927 1.279,13.353 1.69,12.213 2.117,11.069 2.573,9.934 3.017,8.793 3.664,7.747 4.214,6.648 5.293,4.437 6.819,2.483 8.252,0.484 c 0.68,-0.838 1.401,-1.645 2.146,-2.426 -2.83,1.413 -5.59,2.935 -8.195,4.673 -1.869,1.275 -3.668,2.655 -5.227,4.288 -0.388,0.406 -0.754,0.838 -1.12,1.274 -0.314,0.46 -0.709,0.895 -0.969,1.4 -0.643,0.961 -1.042,2.044 -1.413,3.196 -0.162,-2.41 0.635,-4.926 1.877,-7.084 C -3.387,3.644 -1.763,1.718 0,0" /></g><g
           transform="translate(262.497,179.6442)"
           id="g92"><path
             id="path94"
             style="fill:#60978d;fill-opacity:1;fill-rule:nonzero;stroke:none"
             d="m 0,0 c -0.053,-0.029 -0.102,-0.062 -0.155,-0.09 -3.843,-2.068 -8.11,-3.607 -12.596,-4.576 -2.219,-0.582 -4.531,-0.847 -6.811,-1.262 -2.32,-0.2 -4.637,-0.538 -6.986,-0.635 -9.392,-0.639 -18.943,-0.085 -28.539,0.606 9.254,-2.67 18.793,-4.445 28.563,-5.052 9.718,-0.484 19.92,0.269 29.492,4.596 2.308,1.039 4.564,2.337 6.664,3.9 -0.855,0.99 -1.486,2.02 -1.787,3.066 C 6.07,-0.103 3.236,-0.229 0,0" /></g><g
           transform="translate(281.1338,228.2135)"
           id="g96"><path
             id="path98"
             style="fill:#60978d;fill-opacity:1;fill-rule:nonzero;stroke:none"
             d="m 0,0 c -1.526,-0.106 -2.972,-0.452 -4.124,-1.083 -1.461,-0.798 -2.821,-1.813 -3.933,-2.988 1.405,-3.97 2.512,-8.053 3.135,-12.132 0.639,-4.178 0.77,-8.343 0.183,-12.357 -0.016,-0.101 -0.024,-0.203 -0.04,-0.305 -0.493,-3.436 -1.564,-6.709 -3.245,-9.632 1.339,-1.348 3.245,-2.337 4.967,-2.891 0.867,-0.134 1.693,-0.208 2.495,-0.236 2.036,3.514 3.416,7.397 4.145,11.306 0.11,0.614 0.199,1.225 0.281,1.836 0.618,4.584 0.496,9.111 -0.11,13.528 C 3.042,-9.792 1.661,-4.78 0,0" /></g><g
           transform="translate(255.583,255.6452)"
           id="g100"><path
             id="path102"
             style="fill:#60978d;fill-opacity:1;fill-rule:nonzero;stroke:none"
             d="M 0,0 C 0.244,-0.33 0.484,-0.655 0.729,-0.985 1.881,-2.524 3.025,-4.067 4.084,-5.671 4.446,-6.2 4.8,-6.733 5.158,-7.267 c 2.61,-3.888 5.016,-7.915 7.129,-12.063 1.262,0.383 2.426,0.847 3.379,1.38 1.201,0.647 2.829,1.559 4.425,2.667 -0.35,0.664 -0.696,1.331 -1.058,1.991 -1.889,3.428 -3.937,6.758 -6.164,9.949 -0.627,0.901 -1.262,1.792 -1.922,2.667 C 10.162,0.407 9.343,1.457 8.509,2.5 7.784,3.399 7.055,4.295 6.322,5.19 4.89,7.051 3.383,8.708 2.174,10.617 1.124,12.148 0.143,13.724 -0.741,15.336 -1.559,15.275 -2.325,15.21 -2.968,15.161 -3.615,15.108 -5.757,14.66 -8.35,13.854 -7.239,11.184 -5.883,8.639 -4.36,6.249 -3.07,4.026 -1.425,2.016 0,0" /></g><g
           transform="translate(338.0088,426.8756)"
           id="g104"><path
             id="path106"
             style="fill:#60978d;fill-opacity:1;fill-rule:nonzero;stroke:none"
             d="m 0,0 c 3.468,-8.977 4.91,-18.569 3.147,-27.342 -1.718,-8.818 -7.088,-16.228 -14.062,-21.834 -1.734,-1.421 -3.558,-2.756 -5.476,-3.981 -1.062,-0.713 -2.206,-1.45 -3.354,-2.199 3.11,4.218 6.681,10.785 8.325,14.681 8.493,20.095 1.816,31.449 1.543,33.815 -0.468,-2.366 -1.059,-9.705 -1.441,-12.018 -0.59,-2.288 -0.969,-4.588 -1.645,-6.807 -0.7,-2.207 -1.225,-4.446 -2.178,-6.526 -0.452,-1.046 -0.765,-2.142 -1.27,-3.151 l -1.266,-2.561 c 1.344,4.201 1.848,8.675 1.706,13.027 l -0.322,3.424 c -0.204,1.128 -0.489,2.24 -0.761,3.335 l -0.42,1.637 -0.635,1.571 c -0.443,1.034 -0.867,2.064 -1.327,3.066 0.586,-4.43 1.274,-28.555 -4.686,-35.436 -3.859,-4.45 -24.736,-23.01 -18.626,-30.485 h 0.009 c -0.077,-0.138 -0.159,-0.269 -0.232,-0.411 -0.029,-0.057 0,0 0,0 0,0 -10.069,-3.799 -14.795,-3.505 -4.377,0.272 -12.217,4.779 -12.445,8.964 -0.131,5.069 5.548,8.114 5.548,8.114 0,0 -7.605,9.958 -10.271,13.626 -2.679,3.681 -4.425,7.968 -4.711,12.45 -0.305,4.483 0.904,9.103 3.099,13.378 2.178,4.299 5.243,8.252 8.553,12.071 -4.25,-2.712 -8.162,-6.119 -11.244,-10.39 -1.527,-2.137 -2.842,-4.494 -3.762,-7.059 -0.924,-2.557 -1.474,-5.313 -1.494,-8.106 -0.049,-2.797 0.427,-5.602 1.306,-8.244 0.896,-2.638 2.17,-5.122 3.75,-7.356 1.568,-2.248 5.704,-7.776 8.195,-8.998 0,0 -4.714,-5.418 -3.985,-10.751 0.456,-3.347 2.98,-8.855 15.051,-11.16 9.189,-3.619 11.359,-13.325 19.081,-14.013 -4.568,-1.437 -12.742,0.79 -15.861,1.49 -4.344,0.977 -17.656,3.705 -26.654,-3.798 -3.513,-2.931 -8.48,-10.821 -12.29,-12.148 -21.614,-7.536 -13.358,4.026 -13.358,4.026 0,0 -9.058,-10.133 1.763,-12.861 10.821,-2.732 18.768,2.085 18.768,2.085 0,0 -3.257,-11.183 -4.145,-14.348 -0.875,-3.313 -1.144,-6.798 -0.912,-10.234 2.093,0.167 4.361,0.342 6.583,0.521 -0.399,2.789 -0.386,5.623 0.037,8.439 0.412,2.341 1.12,4.662 2.084,6.909 4.874,8.187 13.606,19.363 23.589,21.419 6.367,1.905 10.866,-0.11 10.035,-0.827 -17.176,-4.482 -17.705,-15.299 -12.673,-16.806 -2.98,4.141 0.375,4.332 2.984,4.894 5.402,0.94 11.554,3.013 18.076,5.748 7.003,4.153 6.799,12.515 6.152,16.867 0.069,-0.704 0.097,-1.327 0.211,-2.117 0,0 -5.333,13.415 -5.553,14.807 -0.403,2.557 -0.228,7.878 4.539,8.171 5.602,-0.106 10.801,-3.937 11.404,-6.999 0.077,-0.411 -0.11,0.416 0.46,0.31 0,0 -1.767,5.688 -10.785,8.085 -1.97,2.565 -4.282,4.385 -4.03,8.489 1.462,-2.883 7.975,-7.536 9.795,-8.598 1.25,-0.729 7.593,-3.872 8.484,-9.539 0.029,0.028 0.065,0.024 0.09,0.065 4.67,7.34 -13.06,11.835 -11.884,12.905 7.206,6.567 23.25,14.779 27.297,17.979 3.925,3.183 7.467,7.018 10.134,11.48 1.302,2.243 2.43,4.605 3.236,7.08 0.875,2.447 1.393,5.016 1.633,7.581 C 9.14,-17.799 5.822,-7.687 0,0" /></g><g
           transform="translate(307.1347,351.2243)"
           id="g108"><path
             id="path110"
             style="fill:#3f6760;fill-opacity:1;fill-rule:nonzero;stroke:none"
             d="m 0,0 c -1.824,1.062 -8.334,5.716 -9.795,8.599 -0.253,-4.104 2.06,-5.924 4.03,-8.485 9.017,-2.398 10.614,-8.118 10.614,-8.118 2.096,-0.098 2.719,-4.604 2.878,-6.143 -0.436,-0.269 -0.94,1.172 -1.303,1.241 -1.193,0.228 -1.498,1.637 -1.653,2.92 -0.081,0.659 -0.134,1.29 -0.216,1.701 -0.602,3.066 -5.797,6.893 -11.403,6.998 -4.767,-0.293 -4.943,-5.609 -4.535,-8.171 0.219,-1.392 5.549,-14.806 5.549,-14.806 -0.114,0.79 -0.143,1.417 -0.212,2.117 -0.993,10.178 2.447,11.619 3.66,11.953 0.692,0.191 3.289,-0.285 3.677,-1.38 0.801,-2.272 2.56,-3.615 2.56,-3.615 0,0 3.045,-2.003 3.029,-5.822 0,0 1.934,0.122 0.973,6.53 0.77,1.84 0.847,3.457 0.631,4.942 C 7.662,-3.884 1.25,-0.729 0,0" /></g></g></g></g></svg>